<svg width="24" height="24" viewBox="0 0 24 24" fill="none" xmlns="http://www.w3.org/2000/svg">
<path d="M5 4.5C5 3.57174 5.36875 2.6815 6.02513 2.02513C6.6815 1.36875 7.57174 1 8.5 1H12V8H8.5C7.57174 8 6.6815 7.63125 6.02513 6.97487C5.36875 6.3185 5 5.42826 5 4.5Z" stroke="white" stroke-width="2" stroke-linecap="round" stroke-linejoin="round"/>
<path d="M12 1H15.5C15.9596 1 16.4148 1.09053 16.8394 1.26642C17.264 1.44231 17.6499 1.70012 17.9749 2.02513C18.2999 2.35013 18.5577 2.73597 18.7336 3.16061C18.9095 3.58525 19 4.04037 19 4.5C19 4.95963 18.9095 5.41475 18.7336 5.83939C18.5577 6.26403 18.2999 6.64987 17.9749 6.97487C17.6499 7.29988 17.264 7.55769 16.8394 7.73358C16.4148 7.90947 15.9596 8 15.5 8H12V1Z" stroke="white" stroke-width="2" stroke-linecap="round" stroke-linejoin="round"/>
<path d="M5 11.5C5 10.5717 5.36875 9.6815 6.02513 9.02513C6.6815 8.36875 7.57174 8 8.5 8H12V15H8.5C7.57174 15 6.6815 14.6313 6.02513 13.9749C5.36875 13.3185 5 12.4283 5 11.5Z" stroke="white" stroke-width="2" stroke-linecap="round" stroke-linejoin="round"/>
<path d="M12 11.5C12 11.0404 12.0905 10.5852 12.2664 10.1606C12.4423 9.73597 12.7001 9.35013 13.0251 9.02513C13.3501 8.70012 13.736 8.44231 14.1606 8.26642C14.5852 8.09053 15.0404 8 15.5 8C15.9596 8 16.4148 8.09053 16.8394 8.26642C17.264 8.44231 17.6499 8.70012 17.9749 9.02513C18.2999 9.35013 18.5577 9.73597 18.7336 10.1606C18.9095 10.5852 19 11.0404 19 11.5C19 11.9596 18.9095 12.4148 18.7336 12.8394C18.5577 13.264 18.2999 13.6499 17.9749 13.9749C17.6499 14.2999 17.264 14.5577 16.8394 14.7336C16.4148 14.9095 15.9596 15 15.5 15C15.0404 15 14.5852 14.9095 14.1606 14.7336C13.736 14.5577 13.3501 14.2999 13.0251 13.9749C12.7001 13.6499 12.4423 13.264 12.2664 12.8394C12.0905 12.4148 12 11.9596 12 11.5Z" stroke="white" stroke-width="2" stroke-linecap="round" stroke-linejoin="round"/>
<path d="M5 18.5C5 17.5717 5.36875 16.6815 6.02513 16.0251C6.6815 15.3687 7.57174 15 8.5 15H12V18.5C12 19.4283 11.6313 20.3185 10.9749 20.9749C10.3185 21.6313 9.42826 22 8.5 22C7.57174 22 6.6815 21.6313 6.02513 20.9749C5.36875 20.3185 5 19.4283 5 18.5Z" stroke="white" stroke-width="2" stroke-linecap="round" stroke-linejoin="round"/>
</svg>
