<svg width="80" height="80" viewBox="0 0 80 80" fill="none" xmlns="http://www.w3.org/2000/svg">
<rect x="16" y="16" width="48" height="48" rx="24" fill="#5093FF"/>
<path d="M45 30H35C32.2386 30 30 32.2386 30 35V45C30 47.7614 32.2386 50 35 50H45C47.7614 50 50 47.7614 50 45V35C50 32.2386 47.7614 30 45 30Z" stroke="white" stroke-width="2" stroke-linecap="round" stroke-linejoin="round"/>
<path d="M43.9997 39.3703C44.1231 40.2025 43.981 41.0525 43.5935 41.7993C43.206 42.5461 42.5929 43.1517 41.8413 43.53C41.0898 43.9082 40.2382 44.0399 39.4075 43.9062C38.5768 43.7726 37.8095 43.3804 37.2145 42.7855C36.6196 42.1905 36.2274 41.4232 36.0938 40.5925C35.9601 39.7619 36.0918 38.9102 36.47 38.1587C36.8483 37.4072 37.4539 36.794 38.2007 36.4065C38.9475 36.019 39.7975 35.8769 40.6297 36.0003C41.4786 36.1262 42.2646 36.5218 42.8714 37.1286C43.4782 37.7355 43.8738 38.5214 43.9997 39.3703Z" stroke="white" stroke-width="2" stroke-linecap="round" stroke-linejoin="round"/>
<path d="M45.5 34.5H45.51" stroke="white" stroke-width="2" stroke-linecap="round" stroke-linejoin="round"/>
</svg>
