<svg width="700" height="657" viewBox="0 0 700 657" fill="none" xmlns="http://www.w3.org/2000/svg">
<g clip-path="url(#clip0_190_3099)">
<path d="M485.473 392.123L485.027 392.763L484.391 392.315C451.614 369.893 405.763 375.09 401.724 375.602C400.054 377.825 386.488 397.384 386.488 446.962C386.488 451.024 386.584 455.279 386.774 459.757L386.806 460.412L386.186 460.572C344.98 471.175 316.91 487.056 304.346 533.084C358.879 556.705 402.169 544.039 416.435 539.849L418.788 539.161L419.123 539.593C427.917 550.852 446.175 574.217 481.306 583.957C505.623 552.003 509.105 519.33 509.137 518.994L509.233 518.002L510.171 518.322C521.94 522.272 571.48 515.747 591.168 497.787C587.033 479.939 580.274 460.764 559.488 441.253L558.932 440.725L559.441 440.149C573.452 423.885 584.759 393.85 584.759 365.015C584.759 356.667 583.789 348.43 581.69 340.642C531.784 336.58 504.08 366.007 485.504 392.139L485.473 392.123Z" fill="#FF8989"/>
<path d="M405.353 311.894L405.115 312.79L404.272 312.422C382.786 303.114 363.606 302.618 355.304 303.818C352.887 309.591 349.833 321.41 349.833 336.603C349.833 341.897 350.199 347.606 351.106 353.604L351.249 354.515H350.326C334.025 354.515 317.533 363.087 313.859 365.102C317.342 369.692 339.989 397.168 384.297 400.463C386.078 393.09 388.32 386.485 390.944 380.807C386.619 379.576 382.754 376.841 380.035 372.939C377.601 369.452 376.265 365.294 376.265 361.264L376.536 358.129C377.299 353.923 379.526 350.341 382.834 348.038C390.276 342.824 401.139 345.495 407.071 354.003C409.536 357.522 410.84 361.648 410.84 365.694C410.84 366.446 410.745 367.181 410.649 367.933C416.995 367.645 426.505 367.629 437.685 369.005C441.28 355.171 442.711 343.048 442.711 332.605C442.711 298.764 427.984 282.164 424.899 279.045C422.195 281.908 409.552 295.885 405.353 311.894Z" fill="#FF8989"/>
<path d="M446.932 6.3021C443.83 8.06132 439.711 12.0435 438.232 15.6419C437.342 17.801 436.896 20.0719 436.896 22.2949C436.896 24.31 437.262 26.2931 438.01 28.1003C439.282 31.2349 441.588 33.6339 444.498 34.8493C451.178 37.6481 459.241 33.6019 462.47 25.8134C464.299 21.3993 464.235 16.4096 462.311 12.4593L461.865 11.5318L462.867 11.3239C467.845 10.2523 472.568 10.6522 477.324 12.5233C496.822 20.1519 517.798 44.0772 524.08 65.8274C524.208 66.2432 530.649 88.8571 530.649 122.714C530.649 152.173 525.766 190.14 507.604 229.386C475.018 299.771 457.571 351.108 452.689 390.866C455.917 392.161 459.241 393.713 462.613 395.504C466.732 356.545 484.035 305.112 517.051 233.8C536.072 192.699 541.225 153.308 541.225 122.714C541.225 86.986 534.195 63.2686 534.068 62.8368C528.836 44.7009 506.984 12.8752 481.125 2.75169C469.404 -1.83825 459.512 -0.814707 446.964 6.27012L446.932 6.3021Z" fill="#FF8989"/>
<path d="M386.953 353.914C385.347 355.034 384.313 356.761 383.932 358.888C383.423 361.783 384.218 365.013 386.126 367.764C389.546 372.69 395.494 374.465 399.374 371.762C400.964 370.643 402.014 368.932 402.396 366.789C402.905 363.894 402.11 360.663 400.201 357.913C396.766 352.987 390.818 351.196 386.953 353.914Z" fill="#FF8989"/>
<path d="M348.096 636.346C348.096 638.201 348.35 639.944 348.78 641.56C351.038 649.748 358.974 657.424 371.649 656.129C375.355 655.745 380.11 654.082 382.4 651.203C383.386 649.972 383.879 648.564 383.879 647.029C383.879 646.725 383.863 646.437 383.831 646.117C383.259 641.32 378.853 638.425 374.925 638.393C370.393 638.361 363.665 635.194 363.363 629.581C363.252 628.477 363.204 627.358 363.204 626.222C363.204 621.473 364.206 616.627 366.067 611.797C352.803 618.722 348.096 628.381 348.096 636.362V636.346Z" fill="#FF8989"/>
<path d="M397.42 615.72C397.42 619.543 398.39 622.981 399.917 625.732C404.036 633.137 413.562 638.702 425.57 634.4C428.305 633.425 432.042 631.106 433.585 627.731C434.46 625.828 434.523 623.829 433.76 621.782C432.042 617.16 425.935 615.529 422.325 616.376C417.984 617.416 412.863 616.024 411.209 610.587C409.889 606.765 409.221 602.686 409.221 598.4C409.221 596.497 409.491 594.514 409.761 592.547C400.728 600.431 397.404 608.732 397.404 615.72H397.42Z" fill="#FF8989"/>
<path d="M642.465 423.599C650.067 422.064 660.977 420.097 673.032 422.736C678.662 424.319 680.968 427.613 681.031 434.106C681.063 437.673 683.751 442.823 688.76 443.222C693.404 443.59 698.986 439.96 699.909 433.451C700.847 426.862 695.663 419.905 686.709 415.699C674.161 409.813 655.951 410.181 642.465 423.583V423.599Z" fill="#FF8989"/>
<path d="M614.186 458.288C615.251 458.224 616.364 458.176 616.364 458.176C623.076 457.696 631.441 457.089 641.54 461.311C646.39 463.678 648.06 468.06 646.852 475.129C646.247 478.647 647.997 484.196 652.816 485.492C657.316 486.707 663.455 484.133 665.523 477.895C667.717 471.29 663.996 463.358 656.06 457.712C646.534 450.931 630.137 447.413 614.186 458.288Z" fill="#FF8989"/>
<path d="M623.959 155.292C623.959 214.225 614.512 280.196 590.577 337.258C590.704 337.69 591.356 340.105 591.356 340.105C593.646 348.293 594.807 357.313 594.807 366.893C594.807 393.249 585.694 422.724 571.588 442.251C579.635 450.631 585.997 459.555 590.99 469.471C630.559 439.5 679.653 371.979 688.893 279.14C689.784 270.28 690.309 260.732 690.309 250.625C690.309 196.089 674.628 125.065 613.78 55.6562C620.11 83.3079 623.959 117.852 623.959 155.324V155.292Z" fill="#FF8989"/>
<path d="M574.821 74.323C574.821 113.442 568.651 123.757 566.806 125.964C564.675 159.725 556.389 192.446 542.139 223.2C511.111 290.242 494.238 338.892 489.148 375.98C505.959 355.333 533.551 329.905 581.565 333.231C605.07 277.672 614.931 212.581 614.931 153.536C614.931 111.346 609.905 72.244 601.253 41.9056C591.934 32.1659 581.851 22.7302 571.323 13.7422C573.851 39.1868 574.821 59.0019 574.821 74.339V74.323Z" fill="#FF8989"/>
<path d="M27.1523 285.345C15.8129 294.253 11.0737 303.049 10.7715 315.684C10.7715 316.003 10.7715 316.339 10.7715 316.659C10.7715 343.463 36.2492 371.243 51.469 383.557C52.121 384.101 117.66 437.533 214.943 433.583C289.849 430.528 342.061 433.807 379.164 443.882C379.212 442.283 379.482 434.206 379.514 433.103C341.52 423.251 289.07 420.085 214.513 423.123C121.254 426.93 58.6574 375.961 58.0372 375.449C39.9547 360.815 20.6954 335.963 21.1725 315.939C21.2997 310.79 22.7469 306.248 25.6255 302.058L26.198 301.21L26.866 301.978C29.7605 305.288 34.3248 307.255 39.0641 307.255C47.4612 307.255 54.2839 301.338 54.2839 294.061C54.2839 286.785 47.4612 280.867 39.0641 280.867C35.1677 280.867 29.9354 283.138 27.1364 285.345H27.1523Z" fill="#FF8989"/>
<path d="M183.707 594.743C279.797 629.815 386.304 607.777 438.356 569.138C429.196 561.477 422.675 553.897 418.493 548.667C379.688 559.766 340.883 557.047 303.159 540.527L297.545 538.064C297.545 538.064 298.022 536.273 298.261 535.377C229.605 536.513 168.423 511.084 129.094 489.478C82.814 464.049 40.2081 429.073 15.0962 395.904C13.7762 394.16 14.1102 391.666 15.8437 390.338C16.6866 389.698 17.7362 389.411 18.7859 389.555C19.8355 389.698 20.7579 390.242 21.3941 391.09C46.0925 423.731 88.0622 458.1 133.642 483.033C172.495 504.287 232.945 529.188 300.551 527.413C314.244 482.153 342.759 465.6 381.374 454.885C381.374 454.341 381.31 452.966 381.31 452.422C345.161 442.155 293.061 438.812 217.391 441.899C117.086 445.993 51.4838 392.497 48.5098 390.018C46.7445 389.555 25.8312 383.765 0.0195312 367.229C34.6577 512.395 118.947 571.089 183.723 594.743H183.707Z" fill="#FF8989"/>
<path d="M455.101 459.225C454.178 457.866 453.86 456.299 454.147 454.747C454.449 453.196 455.323 451.837 456.628 450.957C457.916 450.061 459.49 449.741 461.033 450.045C462.576 450.349 463.896 451.229 464.77 452.524C464.802 452.572 477.191 474.226 477.191 474.226C477.748 475.026 477.954 476.082 477.764 477.105C477.573 478.145 476.984 479.04 476.126 479.632C475.251 480.224 474.217 480.432 473.183 480.24C472.165 480.048 471.275 479.456 470.702 478.593L470.75 478.657L455.101 459.257V459.225Z" fill="#F0F0F0" fill-opacity="0.5"/>
<path d="M516.318 420.255C516.62 419.232 517.304 418.4 518.242 417.904C519.164 417.409 520.246 417.313 521.248 417.617C522.25 417.92 523.077 418.608 523.586 419.536C524.079 420.479 524.19 421.551 523.872 422.574C495.07 517.876 428.434 509.24 396.404 505.081L393.366 504.698C391.203 504.426 389.661 502.427 389.931 500.252C390.058 499.196 390.599 498.252 391.442 497.597C392.269 496.941 393.303 496.669 394.352 496.813L397.406 497.213C427.289 501.083 489.456 509.128 516.302 420.255H516.318Z" fill="#F0F0F0" fill-opacity="0.5"/>
</g>
<defs>
<clipPath id="clip0_190_3099">
<rect width="700" height="656.25" fill="white"/>
</clipPath>
</defs>
</svg>
